<svg xmlns="http://www.w3.org/2000/svg" viewBox="0 0 1200 900" role="img" aria-label="Retro sacred heart illustration">
  <defs>
    <radialGradient id="paper" cx="50%" cy="40%" r="65%">
      <stop offset="0%" stop-color="#f4e8cf"/>
      <stop offset="100%" stop-color="#dcc39a"/>
    </radialGradient>
    <radialGradient id="heart" cx="50%" cy="35%" r="70%">
      <stop offset="0%" stop-color="#be4d3e"/>
      <stop offset="100%" stop-color="#7f2e25"/>
    </radialGradient>
  </defs>

  <rect width="1200" height="900" fill="url(#paper)"/>
  <rect x="90" y="70" width="1020" height="760" rx="24" fill="none" stroke="#9e7747" stroke-width="16"/>

  <g stroke="#9a713f" stroke-width="6" opacity="0.65">
    <path d="M170 200 H1030"/>
    <path d="M170 700 H1030"/>
    <path d="M250 120 V780"/>
    <path d="M950 120 V780"/>
  </g>

  <g transform="translate(600 460)">
    <path d="M0 230 C-280 80 -260 -210 -40 -190 C-5 -186 35 -160 48 -120 C58 -160 95 -186 132 -190 C350 -210 365 80 80 230 C55 242 25 255 0 270 C-26 255 -56 242 -80 230Z"
      fill="url(#heart)" stroke="#5f2019" stroke-width="16"/>

    <path d="M-78 65 C-15 20 33 25 92 72" fill="none" stroke="#f0d2a7" stroke-width="10" stroke-linecap="round" opacity="0.8"/>

    <g fill="#f1c777" stroke="#8f612f" stroke-width="10">
      <rect x="-26" y="-330" width="54" height="190" rx="8"/>
      <rect x="-105" y="-255" width="210" height="56" rx="8"/>
    </g>

    <path d="M-130 18 C-50 -40 50 -42 130 18" fill="none" stroke="#d5a457" stroke-width="14"/>

    <g stroke="#9f5b2a" stroke-width="10" stroke-linecap="round">
      <path d="M0 -365 V-420"/>
      <path d="M-55 -350 L-88 -390"/>
      <path d="M55 -350 L88 -390"/>
      <path d="M-75 -305 L-130 -320"/>
      <path d="M75 -305 L130 -320"/>
    </g>
  </g>
</svg>
