<svg xmlns="http://www.w3.org/2000/svg" viewBox="0 0 1200 900" role="img" aria-label="Retro cathedral stained glass with cross">
  <defs>
    <linearGradient id="bg" x1="0" x2="0" y1="0" y2="1">
      <stop offset="0%" stop-color="#2f465d"/>
      <stop offset="100%" stop-color="#1e2f40"/>
    </linearGradient>
    <linearGradient id="glassA" x1="0" x2="1" y1="0" y2="1">
      <stop offset="0%" stop-color="#caa25f"/>
      <stop offset="100%" stop-color="#8a5e32"/>
    </linearGradient>
    <linearGradient id="glassB" x1="1" x2="0" y1="0" y2="1">
      <stop offset="0%" stop-color="#7f2f2f"/>
      <stop offset="100%" stop-color="#4a1d1d"/>
    </linearGradient>
  </defs>

  <rect width="1200" height="900" fill="#dac49f"/>
  <rect x="90" y="70" width="1020" height="760" rx="24" fill="url(#bg)" stroke="#74512f" stroke-width="18"/>

  <path d="M600 115 L980 760 L220 760 Z" fill="none" stroke="#cda86a" stroke-width="10"/>
  <path d="M600 150 L940 730 L260 730 Z" fill="none" stroke="#cda86a" stroke-width="6" opacity="0.8"/>

  <polygon points="600,170 870,660 330,660" fill="url(#glassA)" opacity="0.95"/>
  <polygon points="600,260 790,610 410,610" fill="url(#glassB)" opacity="0.92"/>

  <g fill="#e4c07a" opacity="0.7">
    <circle cx="600" cy="180" r="22"/>
    <circle cx="490" cy="365" r="18"/>
    <circle cx="710" cy="365" r="18"/>
    <circle cx="440" cy="520" r="14"/>
    <circle cx="760" cy="520" r="14"/>
  </g>

  <g fill="#f4dda5" stroke="#8f612f" stroke-width="10" stroke-linecap="round">
    <rect x="565" y="260" width="70" height="280" rx="8"/>
    <rect x="485" y="335" width="230" height="70" rx="8"/>
  </g>

  <path d="M210 760 Q600 640 990 760" fill="none" stroke="#ddbf8a" stroke-width="8" opacity="0.45"/>
</svg>
